<svg width="57" height="50" viewBox="0 0 57 50" fill="none" xmlns="http://www.w3.org/2000/svg">
<path d="M36.5455 -1.78819e-06L13.5341 -3.79991e-06C11.4119 -3.98544e-06 9.59659 1.25 8.82955 3.05L1.10795 20.675C0.877841 21.25 0.750002 21.85 0.750002 22.5L0.750002 27.5C0.750002 30.25 3.05114 32.5 5.86364 32.5L21.9972 32.5L19.5682 43.925L19.4915 44.725C19.4915 45.75 19.9261 46.7 20.6165 47.375L23.3267 50L40.1761 33.525C41.0966 32.625 41.6591 31.375 41.6591 30L41.6591 5C41.6591 2.25 39.358 -1.54232e-06 36.5455 -1.78819e-06ZM36.5455 30L25.4489 40.85L28.875 27.5L5.86364 27.5L5.86364 22.5L13.5341 5L36.5455 5L36.5455 30ZM57 30L46.7727 30L46.7727 -8.94097e-07L57 0L57 30Z" fill="#5D5D5D"/>
</svg>
