<svg width="57" height="50" viewBox="0 0 57 50" fill="none" xmlns="http://www.w3.org/2000/svg">
<path d="M20.4545 50H43.4659C45.5881 50 47.4034 48.75 48.1705 46.95L55.892 29.325C56.1222 28.75 56.25 28.15 56.25 27.5V22.5C56.25 19.75 53.9489 17.5 51.1364 17.5H35.0028L37.4318 6.075L37.5085 5.275C37.5085 4.25 37.0739 3.3 36.3835 2.625L33.6733 0L16.8239 16.475C15.9034 17.375 15.3409 18.625 15.3409 20V45C15.3409 47.75 17.642 50 20.4545 50ZM20.4545 20L31.5511 9.15L28.125 22.5H51.1364V27.5L43.4659 45H20.4545V20ZM0 20H10.2273V50H0V20Z" fill="#4BD97E"/>
</svg>
